<svg width="764" height="768" viewBox="0 0 764 768" fill="none" xmlns="http://www.w3.org/2000/svg">
<rect x="-38" y="-57" width="532" height="882" fill="#284DC0"/>
<path fill-rule="evenodd" clip-rule="evenodd" d="M63.1948 668.646C42.2189 713.502 26.4813 766.286 17.7832 828.193C8.39048 895.044 15.8271 945.517 35.9629 982.583H564.708V662.093C546.576 680.412 525.814 696.207 502.914 707.878C391.585 764.615 193.807 775.372 63.1948 668.646Z" fill="url(#paint0_linear)"/>
<path d="M477.704 632.66C372.597 221.523 78.9988 1.62681 -94 -45L-66.6844 921.272C184.799 988.422 582.811 1043.8 477.704 632.66Z" fill="black" fill-opacity="0.1"/>
<path d="M503.369 404.838C287.684 464.987 40.1498 350.675 -56.6566 286C-56.6566 286 -73.1792 371.744 -56.6567 456.949C5.20453 775.965 343.417 789.233 503.369 707.893C663.321 626.552 719.054 344.688 503.369 404.838Z" fill="#20B7FF"/>
<path d="M-130.788 465.464C152.808 375.596 359.444 210.872 451.219 -1L639 284.767L451.219 739.685C-130.788 1028.72 -412.615 554.771 -130.788 465.464Z" fill="url(#paint1_linear)" fill-opacity="0.07"/>
<path d="M18.0217 828.474C73.0913 436.525 410.662 410.708 572.563 446.793L756 913.848C487.062 1048.7 -37.0479 1220.42 18.0217 828.474Z" fill="url(#paint2_linear)"/>
<path d="M437.963 568.721C248.97 573.65 140.574 714.147 110 783.78L764 907V568.721C734.068 566.668 626.957 563.793 437.963 568.721Z" fill="url(#paint3_linear)"/>
<path fill-rule="evenodd" clip-rule="evenodd" d="M564.706 869.805V662.092C546.575 680.412 525.813 696.206 502.912 707.877C414.145 753.116 270.419 769.123 149.601 719.653C131.326 743.5 118.273 766.176 110.394 784.136L564.706 869.805Z" fill="url(#paint4_linear)"/>
<defs>
<linearGradient id="paint0_linear" x1="69.1985" y1="662.254" x2="238.026" y2="963.91" gradientUnits="userSpaceOnUse">
<stop stop-color="#E43D6B"/>
<stop offset="1" stop-color="#E43D6B" stop-opacity="0"/>
</linearGradient>
<linearGradient id="paint1_linear" x1="362.555" y1="209.14" x2="-3.06424" y2="533.709" gradientUnits="userSpaceOnUse">
<stop/>
<stop offset="1" stop-opacity="0"/>
</linearGradient>
<linearGradient id="paint2_linear" x1="189.746" y1="516.592" x2="276.465" y2="666.764" gradientUnits="userSpaceOnUse">
<stop stop-color="#F87D1A"/>
<stop offset="1" stop-color="#FF9540"/>
</linearGradient>
<linearGradient id="paint3_linear" x1="292.673" y1="619.331" x2="414.888" y2="810.801" gradientUnits="userSpaceOnUse">
<stop stop-color="#F96B3B"/>
<stop offset="1" stop-color="#F96B3B" stop-opacity="0"/>
</linearGradient>
<linearGradient id="paint4_linear" x1="253.81" y1="737.908" x2="256.313" y2="837.434" gradientUnits="userSpaceOnUse">
<stop stop-color="#FFDE59"/>
<stop offset="1" stop-color="#FFDE59" stop-opacity="0"/>
</linearGradient>
</defs>
</svg>
