<svg width="414" height="184" viewBox="0 0 414 184" fill="none" xmlns="http://www.w3.org/2000/svg">
<path d="M170.992 42.2971C253.398 66.9043 320.162 166.478 463.418 177.923L486.154 -202.612C288.607 -206.909 -97.481 -189.789 -87.2886 -117.555C-74.5481 -27.2615 96.7891 20.1392 170.992 42.2971Z" fill="#1FB2F8" fill-opacity="0.5"/>
<path d="M171.17 33.8484C246.682 53.0175 324.058 152.326 480 152.326L465.303 -170.674L-118 -128.51C-84.9792 22.4013 99.0208 15.533 171.17 33.8484Z" fill="#1FB2F8" fill-opacity="0.5"/>
<path d="M225.883 22.5H233.898V26.7H230.083V57.15H233.898V61.35H225.883V22.5ZM253.11 61.35H245.095V57.15H248.91V26.7H245.095V22.5H253.11V61.35Z" fill="white"/>
<path d="M275.602 52H273.717V45.4277H266.549V52H264.674V37.7812H266.549V43.8945H273.717V37.7812H275.602V52ZM289.859 52H287.975L280.816 41.043V52H278.932V37.7812H280.816L287.994 48.7871V37.7812H289.859V52ZM303.688 50.1348C303.206 50.8249 302.532 51.3424 301.666 51.6875C300.807 52.026 299.804 52.1953 298.658 52.1953C297.499 52.1953 296.471 51.9251 295.572 51.3848C294.674 50.8379 293.977 50.0632 293.482 49.0605C292.994 48.0579 292.743 46.8958 292.73 45.5742V44.334C292.73 42.1921 293.229 40.5319 294.225 39.3535C295.227 38.1751 296.633 37.5859 298.443 37.5859C299.928 37.5859 301.122 37.9668 302.027 38.7285C302.932 39.4837 303.486 40.5579 303.688 41.9512H301.812C301.461 40.0697 300.341 39.1289 298.453 39.1289C297.197 39.1289 296.243 39.5716 295.592 40.457C294.947 41.3359 294.622 42.612 294.615 44.2852V45.4473C294.615 47.0423 294.98 48.3118 295.709 49.2559C296.438 50.1934 297.424 50.6621 298.668 50.6621C299.371 50.6621 299.986 50.584 300.514 50.4277C301.041 50.2715 301.477 50.0078 301.822 49.6367V46.4434H298.531V44.9199H303.688V50.1348ZM313.795 52H311.92V37.7812H313.795V52ZM318.658 41.4336L318.717 42.7617C319.524 41.7461 320.579 41.2383 321.881 41.2383C324.114 41.2383 325.24 42.498 325.26 45.0176V52H323.453V45.0078C323.447 44.2461 323.271 43.6829 322.926 43.3184C322.587 42.9538 322.057 42.7715 321.334 42.7715C320.748 42.7715 320.234 42.9277 319.791 43.2402C319.348 43.5527 319.003 43.9629 318.756 44.4707V52H316.949V41.4336H318.658ZM330.436 38.875V41.4336H332.408V42.8301H330.436V49.3828C330.436 49.806 330.523 50.125 330.699 50.3398C330.875 50.5482 331.174 50.6523 331.598 50.6523C331.806 50.6523 332.092 50.6133 332.457 50.5352V52C331.982 52.1302 331.52 52.1953 331.07 52.1953C330.263 52.1953 329.654 51.9512 329.244 51.4629C328.834 50.9746 328.629 50.2812 328.629 49.3828V42.8301H326.705V41.4336H328.629V38.875H330.436ZM338.912 52.1953C337.48 52.1953 336.314 51.7266 335.416 50.7891C334.518 49.8451 334.068 48.5853 334.068 47.0098V46.6777C334.068 45.6296 334.267 44.6953 334.664 43.875C335.068 43.0482 335.628 42.4036 336.344 41.9414C337.066 41.4727 337.848 41.2383 338.688 41.2383C340.061 41.2383 341.129 41.6908 341.891 42.5957C342.652 43.5007 343.033 44.7962 343.033 46.4824V47.2344H335.875C335.901 48.276 336.204 49.1191 336.783 49.7637C337.369 50.4017 338.111 50.7207 339.01 50.7207C339.648 50.7207 340.188 50.5905 340.631 50.3301C341.074 50.0697 341.461 49.7246 341.793 49.2949L342.896 50.1543C342.011 51.515 340.683 52.1953 338.912 52.1953ZM338.688 42.7227C337.958 42.7227 337.346 42.9896 336.852 43.5234C336.357 44.0508 336.051 44.793 335.934 45.75H341.227V45.6133C341.174 44.6953 340.927 43.9857 340.484 43.4844C340.042 42.9766 339.443 42.7227 338.688 42.7227ZM350.24 43.0547C349.967 43.0091 349.671 42.9863 349.352 42.9863C348.167 42.9863 347.363 43.4909 346.939 44.5V52H345.133V41.4336H346.891L346.92 42.6543C347.512 41.7103 348.352 41.2383 349.439 41.2383C349.791 41.2383 350.058 41.2839 350.24 41.375V43.0547ZM353.619 41.4336L353.678 42.7617C354.485 41.7461 355.54 41.2383 356.842 41.2383C359.075 41.2383 360.201 42.498 360.221 45.0176V52H358.414V45.0078C358.408 44.2461 358.232 43.6829 357.887 43.3184C357.548 42.9538 357.018 42.7715 356.295 42.7715C355.709 42.7715 355.195 42.9277 354.752 43.2402C354.309 43.5527 353.964 43.9629 353.717 44.4707V52H351.91V41.4336H353.619ZM369.098 49.1973C369.098 48.709 368.912 48.3314 368.541 48.0645C368.176 47.791 367.535 47.5566 366.617 47.3613C365.706 47.166 364.98 46.9316 364.439 46.6582C363.906 46.3848 363.508 46.0592 363.248 45.6816C362.994 45.304 362.867 44.8548 362.867 44.334C362.867 43.4681 363.232 42.7357 363.961 42.1367C364.697 41.5378 365.634 41.2383 366.773 41.2383C367.971 41.2383 368.941 41.5475 369.684 42.166C370.432 42.7845 370.807 43.5755 370.807 44.5391H368.99C368.99 44.0443 368.779 43.6178 368.355 43.2598C367.939 42.9017 367.411 42.7227 366.773 42.7227C366.116 42.7227 365.602 42.8659 365.23 43.1523C364.859 43.4388 364.674 43.8132 364.674 44.2754C364.674 44.7116 364.846 45.0404 365.191 45.2617C365.536 45.4831 366.158 45.6947 367.057 45.8965C367.962 46.0983 368.694 46.3392 369.254 46.6191C369.814 46.8991 370.227 47.2376 370.494 47.6348C370.768 48.0254 370.904 48.5039 370.904 49.0703C370.904 50.0143 370.527 50.7728 369.771 51.3457C369.016 51.9121 368.036 52.1953 366.832 52.1953C365.986 52.1953 365.237 52.0456 364.586 51.7461C363.935 51.4466 363.424 51.0299 363.053 50.4961C362.688 49.9557 362.506 49.373 362.506 48.748H364.312C364.345 49.3535 364.586 49.8353 365.035 50.1934C365.491 50.5449 366.09 50.7207 366.832 50.7207C367.516 50.7207 368.062 50.584 368.473 50.3105C368.889 50.0306 369.098 49.6595 369.098 49.1973ZM375.064 42.7129C375.865 41.7298 376.907 41.2383 378.189 41.2383C380.423 41.2383 381.549 42.498 381.568 45.0176V52H379.762V45.0078C379.755 44.2461 379.579 43.6829 379.234 43.3184C378.896 42.9538 378.365 42.7715 377.643 42.7715C377.057 42.7715 376.542 42.9277 376.1 43.2402C375.657 43.5527 375.312 43.9629 375.064 44.4707V52H373.258V37H375.064V42.7129ZM386.236 52H384.43V41.4336H386.236V52ZM384.283 38.6309C384.283 38.3379 384.371 38.0905 384.547 37.8887C384.729 37.6868 384.996 37.5859 385.348 37.5859C385.699 37.5859 385.966 37.6868 386.148 37.8887C386.331 38.0905 386.422 38.3379 386.422 38.6309C386.422 38.9238 386.331 39.168 386.148 39.3633C385.966 39.5586 385.699 39.6562 385.348 39.6562C384.996 39.6562 384.729 39.5586 384.547 39.3633C384.371 39.168 384.283 38.9238 384.283 38.6309ZM398.062 46.834C398.062 48.4421 397.695 49.7376 396.959 50.7207C396.223 51.7038 395.227 52.1953 393.971 52.1953C392.688 52.1953 391.679 51.7884 390.943 50.9746V56.0625H389.137V41.4336H390.787L390.875 42.6055C391.611 41.694 392.633 41.2383 393.941 41.2383C395.211 41.2383 396.214 41.7168 396.949 42.6738C397.691 43.6309 398.062 44.9622 398.062 46.668V46.834ZM396.256 46.6289C396.256 45.4375 396.002 44.4967 395.494 43.8066C394.986 43.1165 394.29 42.7715 393.404 42.7715C392.311 42.7715 391.49 43.2565 390.943 44.2266V49.2754C391.484 50.2389 392.311 50.7207 393.424 50.7207C394.29 50.7207 394.977 50.3789 395.484 49.6953C395.999 49.0052 396.256 47.9831 396.256 46.6289Z" fill="white"/>
</svg>
