<svg width="542" height="298" viewBox="0 0 542 298" fill="none" xmlns="http://www.w3.org/2000/svg">
<path d="M288.992 156.297C371.398 180.904 438.162 280.478 581.418 291.923L604.154 -88.612C406.607 -92.9093 20.519 -75.789 30.7114 -3.55454C43.4519 86.7385 214.789 134.139 288.992 156.297Z" fill="#1FB2F8" fill-opacity="0.6"/>
<path d="M289.17 147.848C364.682 167.018 442.058 266.326 598 266.326L583.303 -56.6737L0 -14.5101C33.0208 136.401 217.021 129.533 289.17 147.848Z" fill="#1FB2F8" fill-opacity="0.6"/>
<path d="M216.883 55.5H224.898V59.7H221.083V90.15H224.898V94.35H216.883V55.5ZM244.11 94.35H236.095V90.15H239.91V59.7H236.095V55.5H244.11V94.35Z" fill="white"/>
<path d="M266.922 64.4H270.057V73.715H280.857V64.4H284.007V86H280.857V76.67H270.057V86H266.922V64.4ZM288.221 64.4H291.401L302.036 80.45V64.4H305.216V86H302.036L291.401 69.935V86H288.221V64.4ZM318.238 86.45C316.298 86.45 314.568 86 313.048 85.1C311.538 84.2 310.353 82.905 309.493 81.215C308.633 79.515 308.203 77.51 308.203 75.2C308.203 72.91 308.623 70.92 309.463 69.23C310.313 67.53 311.493 66.23 313.003 65.33C314.523 64.42 316.268 63.965 318.238 63.965C320.718 63.965 322.723 64.545 324.253 65.705C325.793 66.855 326.848 68.495 327.418 70.625L324.238 71.195C323.788 69.875 323.068 68.84 322.078 68.09C321.088 67.33 319.868 66.945 318.418 66.935C316.918 66.925 315.653 67.26 314.623 67.94C313.603 68.62 312.833 69.585 312.313 70.835C311.803 72.075 311.543 73.53 311.533 75.2C311.523 76.88 311.778 78.34 312.298 79.58C312.828 80.82 313.613 81.78 314.653 82.46C315.703 83.13 316.993 83.465 318.523 83.465C320.333 83.465 321.758 82.94 322.798 81.89C323.848 80.83 324.483 79.3 324.703 77.3H320.503V74.78H328.033C328.073 75.11 328.093 75.535 328.093 76.055C328.093 78.075 327.703 79.87 326.923 81.44C326.153 83.01 325.023 84.24 323.533 85.13C322.053 86.01 320.288 86.45 318.238 86.45ZM337.388 64.4H340.523V86H337.388V64.4ZM353.173 69.365C354.873 69.365 356.198 69.795 357.148 70.655C358.108 71.505 358.753 72.5 359.083 73.64C359.413 74.78 359.578 75.9 359.578 77V86H356.398V78.035C356.398 76.445 356.103 75.1 355.513 74C354.923 72.89 353.853 72.335 352.303 72.335C351.073 72.335 350.078 72.755 349.318 73.595C348.568 74.435 348.193 75.76 348.193 77.57V86H345.013V69.8H347.818V71.735C348.428 70.975 349.183 70.39 350.083 69.98C350.983 69.57 352.013 69.365 353.173 69.365ZM367.94 79.475V80.33C367.94 80.84 367.96 81.255 368 81.575C368.04 81.885 368.13 82.155 368.27 82.385C368.51 82.785 368.845 83.075 369.275 83.255C369.715 83.425 370.25 83.51 370.88 83.51C371.42 83.51 372.045 83.455 372.755 83.345V86C371.825 86.18 370.97 86.27 370.19 86.27C369.07 86.27 368.09 86.09 367.25 85.73C366.42 85.37 365.8 84.805 365.39 84.035C365.14 83.565 364.975 83.085 364.895 82.595C364.825 82.095 364.79 81.49 364.79 80.78V79.625V72.32H361.685V69.8H364.79V65.3H367.94V69.8H372.755V72.32H367.94V79.475ZM377.869 78.785C377.999 80.295 378.454 81.46 379.234 82.28C380.014 83.09 381.084 83.495 382.444 83.495C383.414 83.495 384.259 83.275 384.979 82.835C385.699 82.395 386.259 81.755 386.659 80.915L389.734 81.89C389.114 83.32 388.164 84.44 386.884 85.25C385.604 86.05 384.174 86.45 382.594 86.45C380.994 86.45 379.584 86.1 378.364 85.4C377.144 84.69 376.194 83.7 375.514 82.43C374.844 81.15 374.509 79.685 374.509 78.035C374.509 76.285 374.839 74.755 375.499 73.445C376.159 72.135 377.089 71.125 378.289 70.415C379.489 69.705 380.874 69.35 382.444 69.35C383.994 69.35 385.334 69.695 386.464 70.385C387.594 71.075 388.459 72.065 389.059 73.355C389.669 74.635 389.974 76.15 389.974 77.9C389.974 78.09 389.964 78.385 389.944 78.785H377.869ZM382.564 72.125C381.234 72.125 380.179 72.485 379.399 73.205C378.629 73.915 378.144 74.96 377.944 76.34H386.734C386.564 74.91 386.134 73.85 385.444 73.16C384.764 72.47 383.804 72.125 382.564 72.125ZM397.599 70.715C398.049 70.375 398.569 70.12 399.159 69.95C399.749 69.78 400.349 69.695 400.959 69.695C401.289 69.695 401.654 69.73 402.054 69.8V72.74C401.714 72.64 401.319 72.59 400.869 72.59C400.449 72.59 400.034 72.645 399.624 72.755C399.224 72.855 398.854 73.015 398.514 73.235C397.154 74.105 396.474 75.635 396.474 77.825V86H393.309V69.8H396.099V72.38C396.499 71.67 396.999 71.115 397.599 70.715ZM413.056 69.365C414.756 69.365 416.081 69.795 417.031 70.655C417.991 71.505 418.636 72.5 418.966 73.64C419.296 74.78 419.461 75.9 419.461 77V86H416.281V78.035C416.281 76.445 415.986 75.1 415.396 74C414.806 72.89 413.736 72.335 412.186 72.335C410.956 72.335 409.961 72.755 409.201 73.595C408.451 74.435 408.076 75.76 408.076 77.57V86H404.896V69.8H407.701V71.735C408.311 70.975 409.066 70.39 409.966 69.98C410.866 69.57 411.896 69.365 413.056 69.365ZM429.563 86.435C427.593 86.435 425.988 86 424.748 85.13C423.508 84.26 422.748 83.035 422.468 81.455L425.678 80.96C425.878 81.81 426.338 82.475 427.058 82.955C427.788 83.435 428.693 83.675 429.773 83.675C430.753 83.675 431.518 83.475 432.068 83.075C432.628 82.675 432.908 82.125 432.908 81.425C432.908 80.995 432.808 80.66 432.608 80.42C432.408 80.17 432.013 79.935 431.423 79.715C430.843 79.495 429.888 79.205 428.558 78.845C427.138 78.475 426.028 78.085 425.228 77.675C424.438 77.265 423.868 76.79 423.518 76.25C423.168 75.7 422.993 75.02 422.993 74.21C422.993 73.24 423.253 72.39 423.773 71.66C424.293 70.92 425.028 70.35 425.978 69.95C426.928 69.55 428.033 69.35 429.293 69.35C430.523 69.35 431.628 69.545 432.608 69.935C433.588 70.325 434.373 70.88 434.963 71.6C435.563 72.32 435.923 73.155 436.043 74.105L432.833 74.69C432.713 73.89 432.318 73.26 431.648 72.8C430.988 72.34 430.128 72.11 429.068 72.11C428.188 72.11 427.478 72.29 426.938 72.65C426.398 73 426.128 73.465 426.128 74.045C426.128 74.415 426.243 74.72 426.473 74.96C426.703 75.2 427.133 75.435 427.763 75.665C428.393 75.895 429.358 76.175 430.658 76.505C432.038 76.855 433.118 77.245 433.898 77.675C434.688 78.095 435.258 78.595 435.608 79.175C435.958 79.745 436.133 80.455 436.133 81.305C436.133 82.365 435.868 83.28 435.338 84.05C434.818 84.82 434.063 85.41 433.073 85.82C432.093 86.23 430.923 86.435 429.563 86.435ZM447.597 69.365C449.297 69.365 450.622 69.795 451.572 70.655C452.532 71.505 453.177 72.5 453.507 73.64C453.837 74.78 454.002 75.9 454.002 77V86H450.822V78.035C450.822 76.445 450.527 75.1 449.937 74C449.347 72.89 448.277 72.335 446.727 72.335C445.497 72.335 444.502 72.755 443.742 73.595C442.992 74.435 442.617 75.76 442.617 77.57V86H439.437V64.4H442.242V71.735C442.852 70.975 443.607 70.39 444.507 69.98C445.407 69.57 446.437 69.365 447.597 69.365ZM458.209 64.1H461.344V67.145H458.209V64.1ZM458.209 69.8H461.344V86H458.209V69.8ZM473.393 69.35C474.883 69.35 476.183 69.72 477.293 70.46C478.413 71.19 479.273 72.205 479.873 73.505C480.483 74.795 480.788 76.255 480.788 77.885C480.788 79.505 480.488 80.965 479.888 82.265C479.288 83.565 478.433 84.59 477.323 85.34C476.213 86.08 474.923 86.45 473.453 86.45C471.673 86.45 470.183 85.92 468.983 84.86V93.2H465.833V69.8H468.623V71.255C469.213 70.645 469.908 70.175 470.708 69.845C471.508 69.515 472.403 69.35 473.393 69.35ZM473.018 83.615C473.988 83.615 474.803 83.365 475.463 82.865C476.133 82.365 476.633 81.685 476.963 80.825C477.293 79.965 477.458 78.985 477.458 77.885C477.458 76.795 477.293 75.82 476.963 74.96C476.633 74.1 476.128 73.425 475.448 72.935C474.768 72.435 473.923 72.185 472.913 72.185C471.483 72.185 470.408 72.7 469.688 73.73C468.978 74.75 468.623 76.135 468.623 77.885C468.623 79.655 468.983 81.055 469.703 82.085C470.433 83.105 471.538 83.615 473.018 83.615Z" fill="white"/>
</svg>
