<svg width="1152" height="766" viewBox="0 0 1152 766" fill="none" xmlns="http://www.w3.org/2000/svg">
<g clip-path="url(#clip0)">
<rect width="1152" height="766" fill="#FAFAFA"/>
<path d="M-9.75343 603.225L26.5769 666.151H-46.0838L-9.75343 603.225Z" fill="#20B7FF"/>
<path d="M-9.75441 728.658L26.5759 665.731H-46.0848L-9.75441 728.658Z" fill="#20B7FF"/>
<path d="M26.3227 665.941L62.6531 728.867H-10.0076L26.3227 665.941Z" fill="#6330C6"/>
<path d="M26.3227 791.374L62.6531 728.448H-10.0076L26.3227 791.374Z" fill="#6330C6"/>
<path d="M62.4009 728.658L98.7312 791.584H26.0705L62.4009 728.658Z" fill="#6330C6"/>
<path d="M26.2475 540.413L62.5779 603.339H-10.0828L26.2475 540.413Z" fill="#20B7FF"/>
<path d="M26.2475 665.845L62.5779 602.919H-10.0828L26.2475 665.845Z" fill="#20B7FF"/>
<path d="M62.3247 603.129L98.655 666.055H25.9943L62.3247 603.129Z" fill="#6330C6"/>
<path d="M62.3247 728.561L98.655 665.635H25.9943L62.3247 728.561Z" fill="#6330C6"/>
<path d="M98.4028 665.845L134.733 728.771H62.0725L98.4028 665.845Z" fill="#6330C6"/>
<path d="M98.2514 790.919L134.582 727.993H61.9211L98.2514 790.919Z" fill="#6330C6"/>
<path d="M62.2495 477.601L98.5798 540.527H25.9192L62.2495 477.601Z" fill="#20B7FF"/>
<path d="M62.2495 603.034L98.5798 540.108H25.9192L62.2495 603.034Z" fill="#20B7FF"/>
<path d="M98.3276 540.317L134.658 603.243H61.9973L98.3276 540.317Z" fill="#6330C6"/>
<path d="M98.3276 665.75L134.658 602.824H61.9973L98.3276 665.75Z" fill="#6330C6"/>
<path d="M134.405 603.034L170.735 665.96H98.0744L134.405 603.034Z" fill="#6330C6"/>
<path d="M134.405 728.466L170.735 665.54H98.0744L134.405 728.466Z" fill="#6330C6"/>
<path d="M98.2512 414.789L134.582 477.715H61.9209L98.2512 414.789Z" fill="#22A7E6"/>
<path d="M98.2514 540.221L134.582 477.295H61.9211L98.2514 540.221Z" fill="#22A7E6"/>
<path d="M134.329 477.505L170.659 540.431H97.9983L134.329 477.505Z" fill="#5729AE"/>
<path d="M134.329 602.937L170.659 540.011H97.9983L134.329 602.937Z" fill="#5729AE"/>
<path d="M170.407 540.221L206.737 603.147H134.076L170.407 540.221Z" fill="#5729AE"/>
<path d="M170.407 665.654L206.737 602.728H134.076L170.407 665.654Z" fill="#5729AE"/>
<path d="M141.735 263.536L75.0517 378.236L9.06037 263.137L141.735 263.536Z" fill="#20B7FF"/>
<path d="M271.67 491.76L206.113 376.413L138.998 490.861L271.67 491.76Z" fill="#20B7FF"/>
<path d="M140.177 261.589L206.515 376.489H73.8396L140.177 261.589Z" fill="#20B7FF"/>
<path d="M204.905 605.14L271.242 490.24H138.567L204.905 605.14Z" fill="#20B7FF"/>
<path d="M75.4506 148.604L141.788 263.504H9.11304L75.4506 148.604Z" fill="#20B7FF"/>
<path d="M140.177 491.389L206.515 376.489H73.8396L140.177 491.389Z" fill="#20B7FF"/>
<path d="M76.4823 150.277L8.7969 264.389L-56.1836 148.716L76.4823 150.277Z" fill="#20B7FF"/>
<path d="M81.9876 161.255L-50.4585 153.463L22.5121 42.6574L81.9876 161.255Z" fill="#20B7FF"/>
<path d="M42.1556 81.5908L-90.2906 73.7994L-17.32 -37.0066L42.1556 81.5908Z" fill="#20B7FF"/>
<path d="M-46.0501 786.831L26.6106 786.831L-9.71971 723.905L-46.0501 786.831Z" fill="#6330C6"/>
<path d="M101.966 43.6H110.21V47.92H106.286V79.24H110.21V83.56H101.966V43.6ZM129.97 83.56H121.726V79.24H125.65V47.92H121.726V43.6H129.97V83.56Z" fill="#00A7F6"/>
<path d="M153.125 54.72H155.261V62.328H164.357V54.72H166.493V72H164.357V64.368H155.261V72H153.125V54.72ZM169.86 54.72H172.02L181.044 68.208V54.72H183.204V72H181.044L172.02 58.488V72H169.86V54.72ZM193.579 72.36C191.995 72.36 190.603 72 189.403 71.28C188.203 70.544 187.267 69.496 186.595 68.136C185.939 66.776 185.611 65.184 185.611 63.36C185.611 61.536 185.939 59.952 186.595 58.608C187.251 57.248 188.179 56.2 189.379 55.464C190.579 54.728 191.979 54.36 193.579 54.36C195.467 54.36 197.011 54.8 198.211 55.68C199.411 56.56 200.243 57.8 200.707 59.4L198.547 59.856C198.163 58.784 197.555 57.944 196.723 57.336C195.891 56.728 194.875 56.416 193.675 56.4C191.803 56.384 190.371 57.008 189.379 58.272C188.403 59.52 187.907 61.216 187.891 63.36C187.875 65.488 188.363 67.176 189.355 68.424C190.347 69.672 191.787 70.304 193.675 70.32C195.307 70.336 196.571 69.872 197.467 68.928C198.363 67.984 198.875 66.632 199.003 64.872H195.331V63.096H201.259C201.291 63.32 201.307 63.664 201.307 64.128C201.307 65.728 201.011 67.152 200.419 68.4C199.827 69.632 198.947 70.6 197.779 71.304C196.611 72.008 195.211 72.36 193.579 72.36ZM208.748 54.72H210.884V72H208.748V54.72ZM220.725 58.704C222.021 58.704 223.053 59.024 223.821 59.664C224.589 60.304 225.125 61.088 225.429 62.016C225.733 62.928 225.885 63.864 225.885 64.824V72H223.725V65.496C223.725 64.104 223.453 62.96 222.909 62.064C222.365 61.168 221.461 60.72 220.197 60.72C219.093 60.72 218.221 61.096 217.581 61.848C216.957 62.6 216.645 63.704 216.645 65.16V72H214.485V59.04H216.405V60.696C216.885 60.056 217.493 59.568 218.229 59.232C218.965 58.88 219.797 58.704 220.725 58.704ZM232.352 67.008C232.352 67.136 232.352 67.392 232.352 67.776C232.352 68.16 232.368 68.472 232.4 68.712C232.448 68.952 232.52 69.16 232.616 69.336C232.968 69.976 233.672 70.296 234.728 70.296C235.208 70.296 235.72 70.248 236.264 70.152V72C235.624 72.144 234.976 72.216 234.32 72.216C233.472 72.216 232.72 72.072 232.064 71.784C231.424 71.496 230.952 71.048 230.648 70.44C230.472 70.072 230.352 69.704 230.288 69.336C230.24 68.952 230.216 68.488 230.216 67.944V67.104V60.792H227.576V59.04H230.216V55.44H232.352V59.04H236.264V60.792H232.352V67.008ZM239.928 66.12C240.008 67.464 240.384 68.504 241.056 69.24C241.744 69.96 242.68 70.32 243.864 70.32C244.712 70.32 245.456 70.128 246.096 69.744C246.736 69.344 247.232 68.776 247.584 68.04L249.648 68.76C249.136 69.896 248.376 70.784 247.368 71.424C246.36 72.048 245.224 72.36 243.96 72.36C242.696 72.36 241.584 72.08 240.624 71.52C239.68 70.96 238.944 70.168 238.416 69.144C237.888 68.12 237.624 66.936 237.624 65.592C237.624 64.2 237.88 62.984 238.392 61.944C238.904 60.888 239.632 60.08 240.576 59.52C241.52 58.96 242.616 58.68 243.864 58.68C245.16 58.68 246.264 58.984 247.176 59.592C248.104 60.184 248.792 61.04 249.24 62.16C249.704 63.28 249.904 64.6 249.84 66.12H239.928ZM243.936 60.6C242.784 60.6 241.872 60.928 241.2 61.584C240.528 62.224 240.12 63.16 239.976 64.392H247.656C247.368 61.864 246.128 60.6 243.936 60.6ZM255.548 59.832C255.9 59.544 256.316 59.328 256.796 59.184C257.276 59.024 257.764 58.944 258.26 58.944C258.644 58.944 258.964 58.976 259.22 59.04V61.032C258.868 60.952 258.54 60.912 258.236 60.912C257.452 60.912 256.788 61.12 256.244 61.536C255.204 62.272 254.684 63.592 254.684 65.496V72H252.524V59.04H254.444V61.08C254.732 60.568 255.1 60.152 255.548 59.832ZM267.74 58.704C269.036 58.704 270.068 59.024 270.836 59.664C271.604 60.304 272.14 61.088 272.444 62.016C272.748 62.928 272.9 63.864 272.9 64.824V72H270.74V65.496C270.74 64.104 270.468 62.96 269.924 62.064C269.38 61.168 268.476 60.72 267.212 60.72C266.108 60.72 265.236 61.096 264.596 61.848C263.972 62.6 263.66 63.704 263.66 65.16V72H261.5V59.04H263.42V60.696C263.9 60.056 264.508 59.568 265.244 59.232C265.98 58.88 266.812 58.704 267.74 58.704ZM280.928 72.36C279.376 72.36 278.104 72.024 277.112 71.352C276.136 70.664 275.536 69.712 275.312 68.496L277.496 68.136C277.672 68.84 278.08 69.4 278.72 69.816C279.36 70.232 280.144 70.44 281.072 70.44C281.952 70.44 282.64 70.256 283.136 69.888C283.648 69.52 283.904 69.016 283.904 68.376C283.904 67.992 283.816 67.696 283.64 67.488C283.48 67.264 283.152 67.056 282.656 66.864C282.16 66.672 281.36 66.424 280.256 66.12C279.088 65.816 278.176 65.504 277.52 65.184C276.88 64.848 276.416 64.472 276.128 64.056C275.856 63.624 275.72 63.096 275.72 62.472C275.72 61.336 276.176 60.424 277.088 59.736C278 59.032 279.208 58.68 280.712 58.68C282.184 58.68 283.408 59.032 284.384 59.736C285.376 60.424 285.936 61.336 286.064 62.472L283.88 62.856C283.768 62.152 283.416 61.6 282.824 61.2C282.232 60.784 281.472 60.576 280.544 60.576C279.744 60.576 279.096 60.736 278.6 61.056C278.12 61.376 277.88 61.808 277.88 62.352C277.88 62.688 277.976 62.968 278.168 63.192C278.376 63.4 278.736 63.608 279.248 63.816C279.76 64.008 280.536 64.232 281.576 64.488C282.728 64.776 283.632 65.088 284.288 65.424C284.944 65.76 285.408 66.16 285.68 66.624C285.968 67.072 286.112 67.64 286.112 68.328C286.112 69.576 285.648 70.56 284.72 71.28C283.808 72 282.544 72.36 280.928 72.36ZM295.022 58.704C296.318 58.704 297.35 59.024 298.118 59.664C298.886 60.304 299.422 61.088 299.726 62.016C300.03 62.928 300.182 63.864 300.182 64.824V72H298.022V65.496C298.022 64.104 297.75 62.96 297.206 62.064C296.662 61.168 295.758 60.72 294.494 60.72C293.39 60.72 292.518 61.096 291.878 61.848C291.254 62.6 290.942 63.704 290.942 65.16V72H288.782V54.72H290.702V60.696C291.182 60.056 291.79 59.568 292.526 59.232C293.262 58.88 294.094 58.704 295.022 58.704ZM303.553 54.408H305.689V56.616H303.553V54.408ZM303.553 59.04H305.689V72H303.553V59.04ZM315.265 58.68C316.433 58.68 317.457 58.976 318.337 59.568C319.217 60.16 319.889 60.976 320.353 62.016C320.817 63.04 321.049 64.2 321.049 65.496C321.049 66.792 320.809 67.96 320.329 69C319.865 70.04 319.193 70.864 318.313 71.472C317.449 72.064 316.425 72.36 315.241 72.36C313.689 72.36 312.417 71.84 311.425 70.8V77.76H309.289V59.04H311.185V60.48C312.177 59.28 313.537 58.68 315.265 58.68ZM314.977 70.392C316.209 70.392 317.153 69.936 317.809 69.024C318.465 68.112 318.793 66.936 318.793 65.496C318.793 64.056 318.465 62.888 317.809 61.992C317.153 61.08 316.193 60.624 314.929 60.624C313.697 60.624 312.761 61.064 312.121 61.944C311.497 62.824 311.185 64.008 311.185 65.496C311.185 66.984 311.497 68.176 312.121 69.072C312.761 69.952 313.713 70.392 314.977 70.392Z" fill="#333333"/>
</g>
<defs>
<clipPath id="clip0">
<rect width="1152" height="766" fill="white"/>
</clipPath>
</defs>
</svg>
