<svg width="73" height="102" viewBox="0 0 73 102" fill="none" xmlns="http://www.w3.org/2000/svg">
<path d="M1.41445 0.999997H22.0245V11.8H12.2145V90.1H22.0245V100.9H1.41445V0.999997ZM71.426 100.9H50.816V90.1H60.626V11.8H50.816V0.999997H71.426V100.9Z" fill="#1FB2F8"/>
<path d="M1.41445 0.999997V-3.21865e-06H0.414453V0.999997H1.41445ZM22.0245 0.999997H23.0245V-3.21865e-06H22.0245V0.999997ZM22.0245 11.8V12.8H23.0245V11.8H22.0245ZM12.2145 11.8V10.8H11.2145V11.8H12.2145ZM12.2145 90.1H11.2145V91.1H12.2145V90.1ZM22.0245 90.1H23.0245V89.1H22.0245V90.1ZM22.0245 100.9V101.9H23.0245V100.9H22.0245ZM1.41445 100.9H0.414453V101.9H1.41445V100.9ZM1.41445 2H22.0245V-3.21865e-06H1.41445V2ZM21.0245 0.999997V11.8H23.0245V0.999997H21.0245ZM22.0245 10.8H12.2145V12.8H22.0245V10.8ZM11.2145 11.8V90.1H13.2145V11.8H11.2145ZM12.2145 91.1H22.0245V89.1H12.2145V91.1ZM21.0245 90.1V100.9H23.0245V90.1H21.0245ZM22.0245 99.9H1.41445V101.9H22.0245V99.9ZM2.41445 100.9V0.999997H0.414453V100.9H2.41445ZM71.426 100.9V101.9H72.426V100.9H71.426ZM50.816 100.9H49.816V101.9H50.816V100.9ZM50.816 90.1V89.1H49.816V90.1H50.816ZM60.626 90.1V91.1H61.626V90.1H60.626ZM60.626 11.8H61.626V10.8H60.626V11.8ZM50.816 11.8H49.816V12.8H50.816V11.8ZM50.816 0.999997V-3.21865e-06H49.816V0.999997H50.816ZM71.426 0.999997H72.426V-3.21865e-06H71.426V0.999997ZM71.426 99.9H50.816V101.9H71.426V99.9ZM51.816 100.9V90.1H49.816V100.9H51.816ZM50.816 91.1H60.626V89.1H50.816V91.1ZM61.626 90.1V11.8H59.626V90.1H61.626ZM60.626 10.8H50.816V12.8H60.626V10.8ZM51.816 11.8V0.999997H49.816V11.8H51.816ZM50.816 2H71.426V-3.21865e-06H50.816V2ZM70.426 0.999997V100.9H72.426V0.999997H70.426Z" fill="#1FB2F8"/>
</svg>
